<?xml version="1.0" encoding="UTF-8"?>
<svg xmlns="http://www.w3.org/2000/svg" viewBox="0 0 640 480">
  <defs>
    <linearGradient id="bgGradient" x1="0%" y1="0%" x2="100%" y2="100%">
      <stop offset="0%" stop-color="#ffeff7"/>
      <stop offset="100%" stop-color="#fff7d6"/>
    </linearGradient>
    <linearGradient id="shoeGradient" x1="0%" y1="0%" x2="100%" y2="0%">
      <stop offset="0%" stop-color="#ff3b81"/>
      <stop offset="100%" stop-color="#ffd700"/>
    </linearGradient>
    <linearGradient id="accentGradient" x1="0%" y1="0%" x2="0%" y2="100%">
      <stop offset="0%" stop-color="#ffe0f0"/>
      <stop offset="100%" stop-color="#ffc8de"/>
    </linearGradient>
  </defs>
  <rect width="640" height="480" fill="url(#bgGradient)"/>
  <ellipse cx="320" cy="360" rx="240" ry="70" fill="rgba(255,59,129,0.16)"/>
  <path d="M148 220c36-44 94-70 180-82 72-10 144 26 184 84 10 14 15 30 13 46-4 32-34 52-74 60-68 14-138 14-206 2-64-11-104-32-110-64-2-13 2-28 13-46z" fill="url(#accentGradient)"/>
  <path d="M170 230c34-36 82-58 146-67 62-9 122 22 156 69 12 16 17 32 15 46-4 26-30 42-64 48-60 12-122 12-182 2-56-9-92-27-98-52-3-12 1-26 11-42z" fill="#fff"/>
  <path d="M190 252c10-20 30-32 64-40l96-20c46-10 80 10 100 44 7 12 6 24-2 34-12 15-36 22-66 26l-118 12c-34 4-60-2-72-18-8-10-9-22-2-38z" fill="url(#shoeGradient)"/>
  <path d="M206 274c6-12 22-18 48-22l104-14c32-4 54 10 62 28 4 8 0 16-10 22-14 8-34 12-58 14l-118 8c-22 2-36-4-42-14-3-6-3-12 0-22z" fill="#fdf2f8" opacity="0.85"/>
  <path d="M190 252l188-30c-5-10-19-16-40-12l-108 18c-24 4-36 12-40 24z" fill="#fff8fb" opacity="0.8"/>
  <circle cx="250" cy="282" r="14" fill="#fff"/>
  <circle cx="250" cy="282" r="8" fill="#ff3b81"/>
  <circle cx="414" cy="268" r="18" fill="#fff"/>
  <circle cx="414" cy="268" r="10" fill="#ffd700"/>
  <path d="M240 248c28-6 56-10 84-12 24-2 48-2 72 0" fill="none" stroke="#ffe0f0" stroke-width="6" stroke-linecap="round" opacity="0.9"/>
  <path d="M232 266c28-6 56-8 84-8 26 0 52 2 78 6" fill="none" stroke="#ffc8de" stroke-width="6" stroke-linecap="round" opacity="0.9"/>
  <path d="M224 286c28-4 56-6 84-6 28 0 56 2 84 6" fill="none" stroke="#ff9ac5" stroke-width="6" stroke-linecap="round" opacity="0.9"/>
</svg>
